<?xml version="1.0" standalone="no"?>
<!DOCTYPE svg PUBLIC "-//W3C//DTD SVG 20010904//EN"
 "http://www.w3.org/TR/2001/REC-SVG-20010904/DTD/svg10.dtd">
<svg version="1.0" xmlns="http://www.w3.org/2000/svg"
 width="512.000000pt" height="512.000000pt" viewBox="0 0 512.000000 512.000000"
 preserveAspectRatio="xMidYMid meet">
<metadata>
Created by potrace 1.11, written by Peter Selinger 2001-2013
</metadata>
<g transform="translate(0.000000,512.000000) scale(0.100000,-0.100000)"
fill="#000000" stroke="none">
<path d="M2495 5101 c-22 -10 -103 -49 -180 -86 -77 -37 -180 -87 -230 -110
-49 -24 -148 -71 -220 -105 -71 -34 -159 -76 -195 -92 -36 -17 -143 -68 -239
-114 -96 -46 -175 -84 -177 -84 -1 0 -100 -47 -219 -105 -120 -58 -219 -105
-220 -105 -2 0 -79 -37 -172 -81 -92 -45 -217 -105 -278 -134 -60 -28 -119
-62 -130 -75 -20 -22 -20 -37 -21 -1332 -1 -1178 1 -1313 15 -1341 14 -26 184
-127 1112 -656 1255 -717 1190 -681 1218 -681 29 0 41 7 472 253 206 117 394
225 419 239 25 14 122 70 215 123 94 54 179 103 190 109 21 11 368 210 395
226 60 36 427 245 475 271 33 17 67 37 75 43 8 7 28 18 44 26 67 34 63 -69 63
1375 0 1245 -1 1306 -18 1335 -19 31 -43 44 -499 260 -102 48 -234 111 -295
140 -60 29 -155 74 -210 100 -55 26 -152 72 -215 102 -570 272 -763 364 -875
418 -235 113 -233 112 -300 81z m-864 -805 c85 -40 192 -92 239 -114 47 -22
144 -68 215 -102 72 -34 152 -72 178 -84 l48 -22 -73 -37 c-66 -32 -127 -61
-393 -187 -44 -21 -147 -70 -230 -110 -267 -129 -250 -123 -287 -102 -18 11
-105 56 -193 102 -88 45 -182 95 -210 110 -27 15 -117 62 -200 105 -150 77
-179 95 -158 95 6 0 89 38 185 83 95 46 205 99 243 117 39 18 135 64 215 103
225 107 244 116 256 117 6 0 81 -33 165 -74z m2102 40 c82 -38 136 -64 540
-257 l288 -137 -143 -75 c-79 -41 -197 -103 -263 -138 -66 -34 -182 -95 -258
-135 l-139 -73 -76 36 c-42 19 -133 62 -202 95 -69 33 -159 76 -200 95 -41 20
-153 73 -248 119 -95 45 -181 86 -192 89 -26 8 -25 23 3 34 12 5 103 48 202
96 99 47 225 107 280 133 55 26 147 70 205 99 58 28 111 52 118 52 7 1 45 -14
85 -33z m961 -1090 l1 -515 -160 -83 c-345 -180 -415 -216 -546 -286 -75 -40
-139 -72 -143 -72 -3 0 -6 233 -6 518 l0 517 93 47 c84 43 177 92 602 316 83
43 152 77 154 75 2 -1 5 -234 5 -517z m-3139 -67 c102 -52 327 -170 390 -204
33 -18 123 -65 200 -105 180 -93 287 -151 300 -161 8 -6 13 -842 6 -1016 -1
-22 -3 -21 -73 16 -133 70 -281 148 -413 216 -71 37 -161 84 -200 105 -38 21
-115 61 -171 90 l-101 52 0 519 c0 285 1 519 1 519 1 0 28 -14 61 -31z m-860
-829 c88 -46 214 -112 280 -147 66 -35 162 -85 213 -111 l92 -47 0 -537 c0
-341 -4 -538 -10 -538 -8 0 -117 60 -180 99 -8 6 -64 38 -125 72 -60 34 -123
70 -140 79 -16 10 -111 64 -210 120 -99 57 -182 104 -184 106 -3 3 -5 949 -2
1021 l1 23 53 -29 c28 -15 124 -66 212 -111z m2932 -965 l0 -546 -151 -86
c-139 -80 -427 -244 -521 -298 -22 -12 -95 -54 -162 -93 l-123 -70 -1 31 c0
18 -1 273 -2 567 l-2 535 55 31 c30 17 125 67 210 111 85 44 193 100 240 125
47 25 157 83 245 129 88 46 169 89 180 95 11 7 23 12 26 13 3 1 6 -244 6 -544z"/>
</g>
</svg>
